{
  "accessors": [
    {
      "bufferView": 2,
      "componentType": 5126,
      "count": 1054,
      "max": [
        0.058017000555992126,
        0.09962499886751175,
        1.3949999809265137
      ],
      "min": [
        0.01327100396156311,
        0.008237004280090332,
        1.3323800563812256
      ],
      "type": "VEC3"
    },
    {
      "bufferView": 2,
      "byteOffset": 12648,
      "componentType": 5126,
      "count": 1054,
      "max": [
        0.9994249939918518,
        0.9951086640357971,
        0.9992466568946838
      ],
      "min": [
        -0.9851683378219604,
        -0.9979960918426514,
        -0.9985784888267517
      ],
      "type": "VEC3"
    },
    {
      "bufferView": 1,
      "componentType": 5126,
      "count": 1054,
      "max": [
        1.514449954032898,
        3.512160062789917
      ],
      "min": [
        -0.5169169902801514,
        -0.3048039972782135
      ],
      "type": "VEC2"
    },
    {
      "bufferView": 0,
      "componentType": 5125,
      "count": 3072,
      "type": "SCALAR"
    },
    {
      "bufferView": 2,
      "byteOffset": 25296,
      "componentType": 5126,
      "count": 2771,
      "max": [
        0.4186420142650604,
        0.19527199864387512,
        1.1536999940872192
      ],
      "min": [
        0.06396201252937317,
        0.10005999356508255,
        0.8414570093154907
      ],
      "type": "VEC3"
    },
    {
      "bufferView": 2,
      "byteOffset": 58548,
      "componentType": 5126,
      "count": 2771,
      "max": [
        0.9997677803039551,
        0.9794497489929199,
        0.9972023963928223
      ],
      "min": [
        -0.9997802972793579,
        -0.994799792766571,
        -0.9995821714401245
      ],
      "type": "VEC3"
    },
    {
      "bufferView": 1,
      "byteOffset": 8432,
      "componentType": 5126,
      "count": 2771,
      "max": [
        1.6333199739456177,
        2.2860100269317627
      ],
      "min": [
        0.05084900185465813,
        0.17436300218105316
      ],
      "type": "VEC2"
    },
    {
      "bufferView": 0,
      "byteOffset": 12288,
      "componentType": 5125,
      "count": 9123,
      "type": "SCALAR"
    },
    {
      "bufferView": 2,
      "byteOffset": 91800,
      "componentType": 5126,
      "count": 193,
      "max": [
        0.3336210250854492,
        0.3396949768066406,
        0.22646400332450867
      ],
      "min": [
        0.010137006640434265,
        0.016211003065109253,
        0.0
      ],
      "type": "VEC3"
    },
    {
      "bufferView": 2,
      "byteOffset": 94116,
      "componentType": 5126,
      "count": 193,
      "max": [
        1.0,
        1.0,
        1.0
      ],
      "min": [
        -1.0,
        -1.0,
        -1.0
      ],
      "type": "VEC3"
    },
    {
      "bufferView": 1,
      "byteOffset": 30600,
      "componentType": 5126,
      "count": 193,
      "max": [
        8.859109878540039,
        1.9989999532699585
      ],
      "min": [
        0.003996000159531832,
        0.000999000039882958
      ],
      "type": "VEC2"
    },
    {
      "bufferView": 0,
      "byteOffset": 48780,
      "componentType": 5125,
      "count": 732,
      "type": "SCALAR"
    },
    {
      "bufferView": 2,
      "byteOffset": 96432,
      "componentType": 5126,
      "count": 1695,
      "max": [
        0.3679850101470947,
        0.15006500482559204,
        0.8284119963645935
      ],
      "min": [
        0.30196401476860046,
        0.09885700047016144,
        0.7590849995613098
      ],
      "type": "VEC3"
    },
    {
      "bufferView": 2,
      "byteOffset": 116772,
      "componentType": 5126,
      "count": 1695,
      "max": [
        0.8677754402160645,
        0.9737655520439148,
        0.7350490689277649
      ],
      "min": [
        -0.8688557147979736,
        -0.995258629322052,
        -0.7523269057273865
      ],
      "type": "VEC3"
    },
    {
      "bufferView": 1,
      "byteOffset": 32144,
      "componentType": 5126,
      "count": 1695,
      "max": [
        1.3643699884414673,
        0.6196709871292114
      ],
      "min": [
        -0.3643740117549896,
        0.16797399520874023
      ],
      "type": "VEC2"
    },
    {
      "bufferView": 0,
      "byteOffset": 51708,
      "componentType": 5125,
      "count": 4236,
      "type": "SCALAR"
    },
    {
      "bufferView": 2,
      "byteOffset": 137112,
      "componentType": 5126,
      "count": 430,
      "max": [
        0.19389700889587402,
        0.009112000465393066,
        0.11130200326442719
      ],
      "min": [
        0.14762401580810547,
        0.008091002702713013,
        0.10015899688005447
      ],
      "type": "VEC3"
    },
    {
      "bufferView": 2,
      "byteOffset": 142272,
      "componentType": 5126,
      "count": 430,
      "max": [
        0.0,
        1.0,
        0.0
      ],
      "min": [
        0.0,
        -1.0,
        0.0
      ],
      "type": "VEC3"
    },
    {
      "bufferView": 0,
      "byteOffset": 68652,
      "componentType": 5125,
      "count": 2436,
      "type": "SCALAR"
    },
    {
      "bufferView": 2,
      "byteOffset": 147432,
      "componentType": 5126,
      "count": 258,
      "max": [
        0.414216011762619,
        0.20938199758529663,
        1.1536999940872192
      ],
      "min": [
        0.06396201252937317,
        0.08755099773406982,
        0.696603000164032
      ],
      "type": "VEC3"
    },
    {
      "bufferView": 2,
      "byteOffset": 150528,
      "componentType": 5126,
      "count": 258,
      "max": [
        0.9969687461853027,
        0.9413858652114868,
        0.934726893901825
      ],
      "min": [
        -0.9967129826545715,
        -0.9497056603431702,
        -0.9628104567527771
      ],
      "type": "VEC3"
    },
    {
      "bufferView": 1,
      "byteOffset": 45704,
      "componentType": 5126,
      "count": 258,
      "max": [
        1.2497400045394897,
        2.2860100269317627
      ],
      "min": [
        -0.22098200023174286,
        -0.0555419996380806
      ],
      "type": "VEC2"
    },
    {
      "bufferView": 0,
      "byteOffset": 78396,
      "componentType": 5125,
      "count": 555,
      "type": "SCALAR"
    },
    {
      "bufferView": 2,
      "byteOffset": 153624,
      "componentType": 5126,
      "count": 4998,
      "max": [
        0.414216011762619,
        0.31423401832580566,
        1.3343100547790527
      ],
      "min": [
        0.0017460137605667114,
        0.0,
        0.25088000297546387
      ],
      "type": "VEC3"
    },
    {
      "bufferView": 2,
      "byteOffset": 213600,
      "componentType": 5126,
      "count": 4998,
      "max": [
        0.9999955296516418,
        0.9968992471694946,
        1.0
      ],
      "min": [
        -0.9990983605384827,
        -0.9990350008010864,
        -1.0
      ],
      "type": "VEC3"
    },
    {
      "bufferView": 1,
      "byteOffset": 47768,
      "componentType": 5126,
      "count": 4998,
      "max": [
        1.5607500076293945,
        3.046560049057007
      ],
      "min": [
        -0.6098260283470154,
        -2.33882999420166
      ],
      "type": "VEC2"
    },
    {
      "bufferView": 0,
      "byteOffset": 80616,
      "componentType": 5125,
      "count": 16503,
      "type": "SCALAR"
    },
    {
      "bufferView": 2,
      "byteOffset": 273576,
      "componentType": 5126,
      "count": 1277,
      "max": [
        0.4087560176849365,
        0.2078699916601181,
        1.3265000581741333
      ],
      "min": [
        0.02470700442790985,
        0.02570299804210663,
        0.2552030086517334
      ],
      "type": "VEC3"
    },
    {
      "bufferView": 2,
      "byteOffset": 288900,
      "componentType": 5126,
      "count": 1277,
      "max": [
        0.9990957379341125,
        0.9968992471694946,
        1.0
      ],
      "min": [
        -0.9990983605384827,
        -0.9969018697738647,
        -1.0
      ],
      "type": "VEC3"
    },
    {
      "bufferView": 1,
      "byteOffset": 87752,
      "componentType": 5126,
      "count": 1277,
      "max": [
        1.580839991569519,
        3.171220064163208
      ],
      "min": [
        -0.4513469934463501,
        -2.3092899322509766
      ],
      "type": "VEC2"
    },
    {
      "bufferView": 0,
      "byteOffset": 146628,
      "componentType": 5125,
      "count": 3735,
      "type": "SCALAR"
    },
    {
      "bufferView": 2,
      "byteOffset": 304224,
      "componentType": 5126,
      "count": 8076,
      "max": [
        0.39890000224113464,
        0.31423401832580566,
        1.3334599733352661
      ],
      "min": [
        0.0017460137605667114,
        0.0,
        0.25088000297546387
      ],
      "type": "VEC3"
    },
    {
      "bufferView": 2,
      "byteOffset": 401136,
      "componentType": 5126,
      "count": 8076,
      "max": [
        0.9999955296516418,
        0.9998815059661865,
        1.0
      ],
      "min": [
        -0.9998230934143066,
        -0.9999618530273438,
        -1.0
      ],
      "type": "VEC3"
    },
    {
      "bufferView": 1,
      "byteOffset": 97968,
      "componentType": 5126,
      "count": 8076,
      "max": [
        1.5800600051879883,
        3.206860065460205
      ],
      "min": [
        -0.5799520015716553,
        -2.304960012435913
      ],
      "type": "VEC2"
    },
    {
      "bufferView": 0,
      "byteOffset": 161568,
      "componentType": 5125,
      "count": 24450,
      "type": "SCALAR"
    },
    {
      "bufferView": 2,
      "byteOffset": 498048,
      "componentType": 5126,
      "count": 6671,
      "max": [
        0.4186420142650604,
        0.3288649916648865,
        1.3343100547790527
      ],
      "min": [
        0.004576012492179871,
        0.0035089999437332153,
        0.2151689976453781
      ],
      "type": "VEC3"
    },
    {
      "bufferView": 2,
      "byteOffset": 578100,
      "componentType": 5126,
      "count": 6671,
      "max": [
        0.9997463822364807,
        0.9991867542266846,
        0.9977136254310608
      ],
      "min": [
        -0.9997297525405884,
        -0.9991993308067322,
        -0.9999602437019348
      ],
      "type": "VEC3"
    },
    {
      "bufferView": 1,
      "byteOffset": 162576,
      "componentType": 5126,
      "count": 6671,
      "max": [
        1.6098300218582153,
        3.148430109024048
      ],
      "min": [
        -0.6333240270614624,
        -2.5206100940704346
      ],
      "type": "VEC2"
    },
    {
      "bufferView": 0,
      "byteOffset": 259368,
      "componentType": 5125,
      "count": 12996,
      "type": "SCALAR"
    },
    {
      "bufferView": 2,
      "byteOffset": 658152,
      "componentType": 5126,
      "count": 3648,
      "max": [
        0.20995400846004486,
        0.21605399250984192,
        1.0630700588226318
      ],
      "min": [
        0.13698899745941162,
        0.11938099563121796,
        0.9353669881820679
      ],
      "type": "VEC3"
    },
    {
      "bufferView": 2,
      "byteOffset": 701928,
      "componentType": 5126,
      "count": 3648,
      "max": [
        0.9999907612800598,
        0.9989243745803833,
        0.9999625086784363
      ],
      "min": [
        -0.9999907612800598,
        -0.9999929070472717,
        -0.9993249773979187
      ],
      "type": "VEC3"
    },
    {
      "bufferView": 1,
      "byteOffset": 215944,
      "componentType": 5126,
      "count": 3648,
      "max": [
        0.8129450082778931,
        1.8217600584030151
      ],
      "min": [
        0.16866500675678253,
        0.2773210108280182
      ],
      "type": "VEC2"
    },
    {
      "bufferView": 0,
      "byteOffset": 311352,
      "componentType": 5125,
      "count": 15948,
      "type": "SCALAR"
    },
    {
      "bufferView": 2,
      "byteOffset": 745704,
      "componentType": 5126,
      "count": 7391,
      "max": [
        0.32669201493263245,
        0.3174619972705841,
        1.2857600450515747
      ],
      "min": [
        0.007710009813308716,
        0.01860499382019043,
        0.25268998742103577
      ],
      "type": "VEC3"
    },
    {
      "bufferView": 2,
      "byteOffset": 834396,
      "componentType": 5126,
      "count": 7391,
      "max": [
        0.9996603727340698,
        0.9998267889022827,
        0.9992877840995789
      ],
      "min": [
        -0.9999143481254578,
        -0.9999881386756897,
        -1.0
      ],
      "type": "VEC3"
    },
    {
      "bufferView": 1,
      "byteOffset": 245128,
      "componentType": 5126,
      "count": 7391,
      "max": [
        1.5475499629974365,
        2.962510108947754
      ],
      "min": [
        -0.544297993183136,
        -2.3295600414276123
      ],
      "type": "VEC2"
    },
    {
      "bufferView": 0,
      "byteOffset": 375144,
      "componentType": 5125,
      "count": 30804,
      "type": "SCALAR"
    },
    {
      "bufferView": 2,
      "byteOffset": 923088,
      "componentType": 5126,
      "count": 80,
      "max": [
        0.33447501063346863,
        0.34328800439834595,
        0.08904799818992615
      ],
      "min": [
        0.00911000370979309,
        0.012418001890182495,
        0.0036510000936686993
      ],
      "type": "VEC3"
    },
    {
      "bufferView": 2,
      "byteOffset": 924048,
      "componentType": 5126,
      "count": 80,
      "max": [
        1.0,
        1.0,
        1.0
      ],
      "min": [
        -1.0,
        -1.0,
        0.0
      ],
      "type": "VEC3"
    },
    {
      "bufferView": 1,
      "byteOffset": 304256,
      "componentType": 5126,
      "count": 80,
      "max": [
        1.0,
        1.0
      ],
      "min": [
        0.0,
        0.0
      ],
      "type": "VEC2"
    },
    {
      "bufferView": 0,
      "byteOffset": 498360,
      "componentType": 5125,
      "count": 144,
      "type": "SCALAR"
    },
    {
      "bufferView": 2,
      "byteOffset": 925008,
      "componentType": 5126,
      "count": 772,
      "max": [
        0.3444629907608032,
        0.3499079942703247,
        0.13094300031661987
      ],
      "min": [
        0.0,
        0.005445003509521484,
        0.0033939999993890524
      ],
      "type": "VEC3"
    },
    {
      "bufferView": 2,
      "byteOffset": 934272,
      "componentType": 5126,
      "count": 772,
      "max": [
        1.0,
        1.0,
        0.909767210483551
      ],
      "min": [
        -1.0,
        -1.0,
        -0.9097665548324585
      ],
      "type": "VEC3"
    },
    {
      "bufferView": 1,
      "byteOffset": 304896,
      "componentType": 5126,
      "count": 772,
      "max": [
        1.503999948501587,
        0.9995009899139404
      ],
      "min": [
        -0.5039960145950317,
        -1.7646600008010864
      ],
      "type": "VEC2"
    },
    {
      "bufferView": 0,
      "byteOffset": 498936,
      "componentType": 5125,
      "count": 1536,
      "type": "SCALAR"
    }
  ],
  "asset": {
    "extras": {
      "author": "Crafteri (https://sketchfab.com/Crafteri)",
      "license": "CC-BY-4.0 (http://creativecommons.org/licenses/by/4.0/)",
      "source": "https://sketchfab.com/3d-models/statue-of-liberty-de104ba657a14df099bde10cd9bbf4f2",
      "title": "Statue of Liberty"
    },
    "generator": "Sketchfab-12.67.0",
    "version": "2.0"
  },
  "bufferViews": [
    {
      "buffer": 0,
      "byteLength": 505080,
      "name": "floatBufferViews",
      "target": 34963
    },
    {
      "buffer": 0,
      "byteLength": 311072,
      "byteOffset": 505080,
      "byteStride": 8,
      "name": "floatBufferViews",
      "target": 34962
    },
    {
      "buffer": 0,
      "byteLength": 943536,
      "byteOffset": 816152,
      "byteStride": 12,
      "name": "floatBufferViews",
      "target": 34962
    }
  ],
  "buffers": [
    {
      "byteLength": 1759688,
      "uri": "scene.bin"
    }
  ],
  "materials": [
    {
      "doubleSided": true,
      "name": "2_-_Default",
      "pbrMetallicRoughness": {
        "baseColorFactor": [
          0.3959668789128859,
          0.5830405017641959,
          0.4033630387162439,
          1.0
        ],
        "metallicFactor": 0.25,
        "roughnessFactor": 0.6
      }
    },
    {
      "doubleSided": true,
      "emissiveFactor": [
        1.0,
        1.0,
        0.0
      ],
      "name": "2_-_Fiamma",
      "pbrMetallicRoughness": {
        "baseColorFactor": [
          1.0,
          0.4723073203626175,
          0.0,
          1.0
        ],
        "roughnessFactor": 0.5
      }
    },
    {
      "doubleSided": true,
      "name": "7_-_Default",
      "pbrMetallicRoughness": {
        "baseColorFactor": [
          0.3915724777497231,
          0.5775804404296506,
          0.4019777798321956,
          1.0
        ],
        "metallicFactor": 0.75,
        "roughnessFactor": 0.75
      }
    },
    {
      "doubleSided": true,
      "name": "7_-_PorteBlindate",
      "pbrMetallicRoughness": {
        "baseColorFactor": [
          0.0,
          0.0,
          0.0,
          1.0
        ]
      }
    },
    {
      "doubleSided": true,
      "name": "8_-_DefaultA",
      "pbrMetallicRoughness": {
        "metallicFactor": 0.0,
        "roughnessFactor": 0.8
      }
    },
    {
      "doubleSided": true,
      "name": "9_-_DefaultA"
    }
  ],
  "meshes": [
    {
      "name": "Object_0",
      "primitives": [
        {
          "attributes": {
            "NORMAL": 1,
            "POSITION": 0,
            "TEXCOORD_0": 2
          },
          "indices": 3,
          "material": 1,
          "mode": 4
        }
      ]
    },
    {
      "name": "Object_1",
      "primitives": [
        {
          "attributes": {
            "NORMAL": 5,
            "POSITION": 4,
            "TEXCOORD_0": 6
          },
          "indices": 7,
          "material": 2,
          "mode": 4
        }
      ]
    },
    {
      "name": "Object_2",
      "primitives": [
        {
          "attributes": {
            "NORMAL": 9,
            "POSITION": 8,
            "TEXCOORD_0": 10
          },
          "indices": 11,
          "material": 4,
          "mode": 4
        }
      ]
    },
    {
      "name": "Object_3",
      "primitives": [
        {
          "attributes": {
            "NORMAL": 13,
            "POSITION": 12,
            "TEXCOORD_0": 14
          },
          "indices": 15,
          "material": 0,
          "mode": 4
        }
      ]
    },
    {
      "name": "Object_4",
      "primitives": [
        {
          "attributes": {
            "NORMAL": 17,
            "POSITION": 16
          },
          "indices": 18,
          "material": 2,
          "mode": 4
        }
      ]
    },
    {
      "name": "Object_5",
      "primitives": [
        {
          "attributes": {
            "NORMAL": 20,
            "POSITION": 19,
            "TEXCOORD_0": 21
          },
          "indices": 22,
          "material": 2,
          "mode": 4
        }
      ]
    },
    {
      "name": "Object_6",
      "primitives": [
        {
          "attributes": {
            "NORMAL": 24,
            "POSITION": 23,
            "TEXCOORD_0": 25
          },
          "indices": 26,
          "material": 2,
          "mode": 4
        }
      ]
    },
    {
      "name": "Object_7",
      "primitives": [
        {
          "attributes": {
            "NORMAL": 28,
            "POSITION": 27,
            "TEXCOORD_0": 29
          },
          "indices": 30,
          "material": 2,
          "mode": 4
        }
      ]
    },
    {
      "name": "Object_8",
      "primitives": [
        {
          "attributes": {
            "NORMAL": 32,
            "POSITION": 31,
            "TEXCOORD_0": 33
          },
          "indices": 34,
          "material": 2,
          "mode": 4
        }
      ]
    },
    {
      "name": "Object_9",
      "primitives": [
        {
          "attributes": {
            "NORMAL": 36,
            "POSITION": 35,
            "TEXCOORD_0": 37
          },
          "indices": 38,
          "material": 2,
          "mode": 4
        }
      ]
    },
    {
      "name": "Object_10",
      "primitives": [
        {
          "attributes": {
            "NORMAL": 40,
            "POSITION": 39,
            "TEXCOORD_0": 41
          },
          "indices": 42,
          "material": 2,
          "mode": 4
        }
      ]
    },
    {
      "name": "Object_11",
      "primitives": [
        {
          "attributes": {
            "NORMAL": 44,
            "POSITION": 43,
            "TEXCOORD_0": 45
          },
          "indices": 46,
          "material": 2,
          "mode": 4
        }
      ]
    },
    {
      "name": "Object_12",
      "primitives": [
        {
          "attributes": {
            "NORMAL": 48,
            "POSITION": 47,
            "TEXCOORD_0": 49
          },
          "indices": 50,
          "material": 3,
          "mode": 4
        }
      ]
    },
    {
      "name": "Object_13",
      "primitives": [
        {
          "attributes": {
            "NORMAL": 52,
            "POSITION": 51,
            "TEXCOORD_0": 53
          },
          "indices": 54,
          "material": 5,
          "mode": 4
        }
      ]
    }
  ],
  "nodes": [
    {
      "children": [
        1
      ],
      "matrix": [
        50.0,
        0.0,
        0.0,
        0.0,
        0.0,
        1.1102230246251565e-14,
        -50.0,
        0.0,
        0.0,
        50.0,
        1.1102230246251565e-14,
        0.0,
        0.0,
        0.0,
        0.0,
        1.0
      ],
      "name": "Sketchfab_model"
    },
    {
      "children": [
        2,
        3,
        4,
        5,
        6,
        7,
        8,
        9,
        10,
        11,
        12,
        13,
        14,
        15
      ],
      "matrix": [
        1.0,
        0.0,
        0.0,
        0.0,
        0.0,
        1.0,
        0.0,
        0.0,
        0.0,
        0.0,
        1.0,
        0.0,
        -0.2093210071325302,
        -0.17495399713516235,
        0.0,
        1.0
      ],
      "name": "LibertStatue.obj.cleaner.gles"
    },
    {
      "mesh": 0,
      "name": "Object_2"
    },
    {
      "mesh": 1,
      "name": "Object_3"
    },
    {
      "mesh": 2,
      "name": "Object_4"
    },
    {
      "mesh": 3,
      "name": "Object_5"
    },
    {
      "mesh": 4,
      "name": "Object_6"
    },
    {
      "mesh": 5,
      "name": "Object_7"
    },
    {
      "mesh": 6,
      "name": "Object_8"
    },
    {
      "mesh": 7,
      "name": "Object_9"
    },
    {
      "mesh": 8,
      "name": "Object_10"
    },
    {
      "mesh": 9,
      "name": "Object_11"
    },
    {
      "mesh": 10,
      "name": "Object_12"
    },
    {
      "mesh": 11,
      "name": "Object_13"
    },
    {
      "mesh": 12,
      "name": "Object_14"
    },
    {
      "mesh": 13,
      "name": "Object_15"
    }
  ],
  "scene": 0,
  "scenes": [
    {
      "name": "Sketchfab_Scene",
      "nodes": [
        0
      ]
    }
  ]
}
