{
  "accessors": [
    {
      "bufferView": 2,
      "componentType": 5126,
      "count": 1090,
      "max": [
        1.6805000305175781,
        1.6833000183105469,
        1.0956000089645386
      ],
      "min": [
        -1.6805000305175781,
        -1.6833000183105469,
        -0.00019999999494757503
      ],
      "type": "VEC3"
    },
    {
      "bufferView": 2,
      "byteOffset": 13080,
      "componentType": 5126,
      "count": 1090,
      "max": [
        1.0,
        1.0,
        0.9994354248046875
      ],
      "min": [
        -1.0,
        -1.0,
        -1.0
      ],
      "type": "VEC3"
    },
    {
      "bufferView": 1,
      "componentType": 5126,
      "count": 1090,
      "max": [
        0.9901999831199646,
        0.9757000207901001
      ],
      "min": [
        0.009800000116229057,
        0.009800000116229057
      ],
      "type": "VEC2"
    },
    {
      "bufferView": 0,
      "componentType": 5125,
      "count": 3432,
      "type": "SCALAR"
    },
    {
      "bufferView": 2,
      "byteOffset": 26160,
      "componentType": 5126,
      "count": 6193,
      "max": [
        0.37529999017715454,
        0.37540000677108765,
        8.974200248718262
      ],
      "min": [
        -0.3732999861240387,
        -0.37689998745918274,
        1.48989999294281
      ],
      "type": "VEC3"
    },
    {
      "bufferView": 2,
      "byteOffset": 100476,
      "componentType": 5126,
      "count": 6193,
      "max": [
        0.9999020099639893,
        0.999944806098938,
        0.7772037982940674
      ],
      "min": [
        -0.9995643496513367,
        -0.9999105930328369,
        -1.0
      ],
      "type": "VEC3"
    },
    {
      "bufferView": 1,
      "byteOffset": 8720,
      "componentType": 5126,
      "count": 6193,
      "max": [
        0.9815999865531921,
        0.890500009059906
      ],
      "min": [
        0.019999999552965164,
        0.04879999905824661
      ],
      "type": "VEC2"
    },
    {
      "bufferView": 0,
      "byteOffset": 13728,
      "componentType": 5125,
      "count": 33408,
      "type": "SCALAR"
    },
    {
      "bufferView": 2,
      "byteOffset": 174792,
      "componentType": 5126,
      "count": 25222,
      "max": [
        0.9419999718666077,
        0.9419999718666077,
        13.370100021362305
      ],
      "min": [
        -0.9438999891281128,
        -0.9419999718666077,
        8.789199829101563
      ],
      "type": "VEC3"
    },
    {
      "bufferView": 2,
      "byteOffset": 477456,
      "componentType": 5126,
      "count": 25222,
      "max": [
        0.9997513890266418,
        0.9999488592147827,
        1.0
      ],
      "min": [
        -0.9999755620956421,
        -0.9999488592147827,
        -1.0
      ],
      "type": "VEC3"
    },
    {
      "bufferView": 1,
      "byteOffset": 58264,
      "componentType": 5126,
      "count": 25222,
      "max": [
        0.9901999831199646,
        0.8353999853134155
      ],
      "min": [
        0.009800000116229057,
        0.009800000116229057
      ],
      "type": "VEC2"
    },
    {
      "bufferView": 0,
      "byteOffset": 147360,
      "componentType": 5125,
      "count": 141120,
      "type": "SCALAR"
    },
    {
      "bufferView": 2,
      "byteOffset": 780120,
      "componentType": 5126,
      "count": 1809,
      "max": [
        1.6805000305175781,
        1.6833000183105469,
        1.5210000276565552
      ],
      "min": [
        -1.6805000305175781,
        -1.6833000183105469,
        1.0822999477386475
      ],
      "type": "VEC3"
    },
    {
      "bufferView": 2,
      "byteOffset": 801828,
      "componentType": 5126,
      "count": 1809,
      "max": [
        0.9999123811721802,
        0.9999123811721802,
        1.0
      ],
      "min": [
        -0.9999123811721802,
        -0.9999123811721802,
        -0.6715964674949646
      ],
      "type": "VEC3"
    },
    {
      "bufferView": 1,
      "byteOffset": 260040,
      "componentType": 5126,
      "count": 1809,
      "max": [
        0.935699999332428,
        0.9750000238418579
      ],
      "min": [
        0.6510999798774719,
        0.7031000256538391
      ],
      "type": "VEC2"
    },
    {
      "bufferView": 0,
      "byteOffset": 711840,
      "componentType": 5125,
      "count": 4140,
      "type": "SCALAR"
    }
  ],
  "asset": {
    "extras": {
      "author": "jeffhejazi (https://sketchfab.com/jeffhejazi)",
      "license": "CC-BY-4.0 (http://creativecommons.org/licenses/by/4.0/)",
      "source": "https://sketchfab.com/3d-models/z0v5p8bd7l6o-milad-tower-509a2d934d124c44831a8c4723b41046",
      "title": "Z0v5p8bd7l6o- Milad Tower"
    },
    "generator": "Sketchfab-13.74.0",
    "version": "2.0"
  },
  "bufferViews": [
    {
      "buffer": 0,
      "byteLength": 728400,
      "name": "floatBufferViews",
      "target": 34963
    },
    {
      "buffer": 0,
      "byteLength": 274512,
      "byteOffset": 728400,
      "byteStride": 8,
      "name": "floatBufferViews",
      "target": 34962
    },
    {
      "buffer": 0,
      "byteLength": 823536,
      "byteOffset": 1002912,
      "byteStride": 12,
      "name": "floatBufferViews",
      "target": 34962
    }
  ],
  "buffers": [
    {
      "byteLength": 1826448,
      "uri": "scene.bin"
    }
  ],
  "materials": [
    {
      "doubleSided": true,
      "name": "lambert10",
      "pbrMetallicRoughness": {
        "metallicFactor": 0.0,
        "roughnessFactor": 0.6
      }
    },
    {
      "doubleSided": true,
      "name": "lambert11",
      "pbrMetallicRoughness": {
        "metallicFactor": 0.0,
        "roughnessFactor": 0.6
      }
    },
    {
      "doubleSided": true,
      "name": "lambert12",
      "pbrMetallicRoughness": {
        "metallicFactor": 0.0,
        "roughnessFactor": 0.6
      }
    },
    {
      "doubleSided": true,
      "name": "lambert13",
      "pbrMetallicRoughness": {
        "metallicFactor": 0.0,
        "roughnessFactor": 0.6
      }
    }
  ],
  "meshes": [
    {
      "name": "Object_0",
      "primitives": [
        {
          "attributes": {
            "NORMAL": 1,
            "POSITION": 0,
            "TEXCOORD_0": 2
          },
          "indices": 3,
          "material": 0,
          "mode": 4
        }
      ]
    },
    {
      "name": "Object_1",
      "primitives": [
        {
          "attributes": {
            "NORMAL": 5,
            "POSITION": 4,
            "TEXCOORD_0": 6
          },
          "indices": 7,
          "material": 1,
          "mode": 4
        }
      ]
    },
    {
      "name": "Object_2",
      "primitives": [
        {
          "attributes": {
            "NORMAL": 9,
            "POSITION": 8,
            "TEXCOORD_0": 10
          },
          "indices": 11,
          "material": 2,
          "mode": 4
        }
      ]
    },
    {
      "name": "Object_3",
      "primitives": [
        {
          "attributes": {
            "NORMAL": 13,
            "POSITION": 12,
            "TEXCOORD_0": 14
          },
          "indices": 15,
          "material": 3,
          "mode": 4
        }
      ]
    }
  ],
  "nodes": [
    {
      "children": [
        1
      ],
      "matrix": [
        1.0,
        0.0,
        0.0,
        0.0,
        0.0,
        2.220446049250313e-16,
        -1.0,
        0.0,
        0.0,
        1.0,
        2.220446049250313e-16,
        0.0,
        0.0,
        0.0,
        0.0,
        1.0
      ],
      "name": "Sketchfab_model"
    },
    {
      "children": [
        2,
        3,
        4,
        5
      ],
      "name": "Milad_.obj.cleaner.materialmerger.gles"
    },
    {
      "mesh": 0,
      "name": "Object_2"
    },
    {
      "mesh": 1,
      "name": "Object_3"
    },
    {
      "mesh": 2,
      "name": "Object_4"
    },
    {
      "mesh": 3,
      "name": "Object_5"
    }
  ],
  "scene": 0,
  "scenes": [
    {
      "name": "Sketchfab_Scene",
      "nodes": [
        0
      ]
    }
  ]
}
