{
  "accessors": [
    {
      "bufferView": 2,
      "componentType": 5126,
      "count": 65534,
      "max": [
        74.6353759765625,
        75.30663299560547,
        339.5377197265625
      ],
      "min": [
        -95.0462417602539,
        -93.48880004882813,
        -8.420455932617188
      ],
      "type": "VEC3"
    },
    {
      "bufferView": 2,
      "byteOffset": 786408,
      "componentType": 5126,
      "count": 65534,
      "max": [
        1.0,
        1.0,
        0.9999997019767761
      ],
      "min": [
        -1.0,
        -0.9999992251396179,
        -1.0
      ],
      "type": "VEC3"
    },
    {
      "bufferView": 1,
      "componentType": 5126,
      "count": 65534,
      "max": [
        0.9996417164802551,
        0.9984930753707886
      ],
      "min": [
        0.00035881996154785156,
        -0.002374589443206787
      ],
      "type": "VEC2"
    },
    {
      "bufferView": 0,
      "componentType": 5125,
      "count": 123279,
      "type": "SCALAR"
    },
    {
      "bufferView": 2,
      "byteOffset": 1572816,
      "componentType": 5126,
      "count": 38572,
      "max": [
        35.029232025146484,
        68.13520050048828,
        293.0920715332031
      ],
      "min": [
        -76.18412017822266,
        -54.67698669433594,
        -8.212928771972656
      ],
      "type": "VEC3"
    },
    {
      "bufferView": 2,
      "byteOffset": 2035680,
      "componentType": 5126,
      "count": 38572,
      "max": [
        1.0,
        0.9999979734420776,
        0.9999999403953552
      ],
      "min": [
        -1.0,
        -1.0,
        -0.9999999403953552
      ],
      "type": "VEC3"
    },
    {
      "bufferView": 1,
      "byteOffset": 524272,
      "componentType": 5126,
      "count": 38572,
      "max": [
        0.9996364712715149,
        0.9942536950111389
      ],
      "min": [
        0.0003609592095017433,
        0.00035561807453632355
      ],
      "type": "VEC2"
    },
    {
      "bufferView": 0,
      "byteOffset": 493116,
      "componentType": 5125,
      "count": 74019,
      "type": "SCALAR"
    }
  ],
  "asset": {
    "extras": {
      "author": "SomeAB (https://sketchfab.com/SomeAB)",
      "license": "CC-BY-4.0 (http://creativecommons.org/licenses/by/4.0/)",
      "source": "https://sketchfab.com/3d-models/tokyo-tower-dc2714f018934e7595381cab83626594",
      "title": "Tokyo Tower"
    },
    "generator": "Sketchfab-15.37.0",
    "version": "2.0"
  },
  "bufferViews": [
    {
      "buffer": 0,
      "byteLength": 789192,
      "name": "floatBufferViews",
      "target": 34963
    },
    {
      "buffer": 0,
      "byteLength": 832848,
      "byteOffset": 789192,
      "byteStride": 8,
      "name": "floatBufferViews",
      "target": 34962
    },
    {
      "buffer": 0,
      "byteLength": 2498544,
      "byteOffset": 1622040,
      "byteStride": 12,
      "name": "floatBufferViews",
      "target": 34962
    }
  ],
  "buffers": [
    {
      "byteLength": 4120584,
      "uri": "scene.bin"
    }
  ],
  "images": [
    {
      "uri": "textures/BakedMaterial_01_baseColor.png"
    }
  ],
  "materials": [
    {
      "doubleSided": true,
      "name": "BakedMaterial_01",
      "pbrMetallicRoughness": {
        "baseColorTexture": {
          "index": 0
        },
        "metallicFactor": 0.0,
        "roughnessFactor": 0.8211145618000169
      }
    }
  ],
  "meshes": [
    {
      "name": "Google 3D Tiles.001_BakedMaterial_01_0",
      "primitives": [
        {
          "attributes": {
            "NORMAL": 1,
            "POSITION": 0,
            "TEXCOORD_0": 2
          },
          "indices": 3,
          "material": 0,
          "mode": 4
        }
      ]
    },
    {
      "name": "Google 3D Tiles.001_BakedMaterial_01_0",
      "primitives": [
        {
          "attributes": {
            "NORMAL": 5,
            "POSITION": 4,
            "TEXCOORD_0": 6
          },
          "indices": 7,
          "material": 0,
          "mode": 4
        }
      ]
    }
  ],
  "nodes": [
    {
      "children": [
        1
      ],
      "matrix": [
        1.0,
        0.0,
        0.0,
        0.0,
        0.0,
        2.220446049250313e-16,
        -1.0,
        0.0,
        0.0,
        1.0,
        2.220446049250313e-16,
        0.0,
        0.0,
        0.0,
        0.0,
        1.0
      ],
      "name": "Sketchfab_model"
    },
    {
      "children": [
        2
      ],
      "matrix": [
        0.009999999776482582,
        0.0,
        0.0,
        0.0,
        0.0,
        0.0,
        0.009999999776482582,
        0.0,
        0.0,
        -0.009999999776482582,
        0.0,
        0.0,
        0.0,
        0.0,
        0.0,
        1.0
      ],
      "name": "5368b9a7c0f547eb83b7aa48f519bd8c.fbx"
    },
    {
      "children": [
        3
      ],
      "name": "RootNode"
    },
    {
      "children": [
        4,
        5
      ],
      "matrix": [
        100.0,
        0.0,
        0.0,
        0.0,
        0.0,
        -1.629206793918314e-05,
        -99.99999999999868,
        0.0,
        0.0,
        99.99999999999868,
        -1.629206793918314e-05,
        0.0,
        0.0,
        0.0,
        0.0,
        1.0
      ],
      "name": "Google 3D Tiles.001"
    },
    {
      "mesh": 0,
      "name": "Google 3D Tiles.001_BakedMaterial_01_0"
    },
    {
      "mesh": 1,
      "name": "Google 3D Tiles.001_BakedMaterial_01_0"
    }
  ],
  "samplers": [
    {
      "magFilter": 9729,
      "minFilter": 9987,
      "wrapS": 10497,
      "wrapT": 10497
    }
  ],
  "scene": 0,
  "scenes": [
    {
      "name": "Sketchfab_Scene",
      "nodes": [
        0
      ]
    }
  ],
  "textures": [
    {
      "sampler": 0,
      "source": 0
    }
  ]
}
